# xmcd
#
# Track frame offsets:
#	150
#	12155
#	28567
#	44442
#	58355
#	73780
#	89270
#	116892
#	132475
#	146762
#	156450
#	167422
#
# Disc length: 2438 seconds
#
# Revision: 1
# Processed by: cddbd v1.5.1PL0 Copyright (c) Steve Scherf et al.
# Submitted via: CDex 1.50Beta5
#
DISCID=b009840c
DTITLE=ヒカシュー - うわさの人類
DYEAR=1992
DGENRE=Rock
TTITLE0=ト・アイスクロン
TTITLE1=うわさの人類
TTITLE2=出来事
TTITLE3=体温
TTITLE4=新しい部族
TTITLE5=予期せぬ結合
TTITLE6=アウト・キャスト
TTITLE7=二枚舌の男
TTITLE8=恋人たち
TTITLE9=小人のハンス
TTITLE10=ONE OF US
TTITLE11=匂い
EXTD=
EXTT0=
EXTT1=
EXTT2=
EXTT3=
EXTT4=
EXTT5=
EXTT6=
EXTT7=
EXTT8=
EXTT9=
EXTT10=
EXTT11=
PLAYORDER=
